<svg xmlns="http://www.w3.org/2000/svg" width="250.2" height="43.44" viewBox="0 0 250.2 43.44"><path d="M36.04-14.08a1.563,1.563,0,0,0,1.56-1.68A1.571,1.571,0,0,0,36-17.44H27.68v-4.8h6.48a1.614,1.614,0,0,0,1.68-1.68,1.6,1.6,0,0,0-1.68-1.64H27.68v-5.28a1.713,1.713,0,0,0-1.88-1.68A1.689,1.689,0,0,0,24-30.84v5.28H21.8a17.005,17.005,0,0,0,.72-2.64,1.751,1.751,0,0,0-1.84-1.68A1.683,1.683,0,0,0,19-28.6c-.76,2.88-1.44,5.36-3.32,7.76a1.743,1.743,0,0,0-.44,1.12,1.728,1.728,0,0,0,1.8,1.56c.6,0,1.8-.04,3.52-4.08H24v4.8H16.88a1.6,1.6,0,0,0-1.64,1.68,1.571,1.571,0,0,0,1.6,1.68h.04L23-14.2A30.879,30.879,0,0,1,14.2-3.48a1.854,1.854,0,0,0-.8,1.44A1.97,1.97,0,0,0,15.36-.2,2.175,2.175,0,0,0,16.8-.8a34.114,34.114,0,0,0,7.36-9.48C24.08-7.04,24-3.24,24-.2V1.16a1.657,1.657,0,0,0,1.84,1.56,1.657,1.657,0,0,0,1.84-1.56V-.24c0-3.12-.08-6.92-.16-10.2A37.859,37.859,0,0,0,35-1.56a2.22,2.22,0,0,0,1.48.6,2.1,2.1,0,0,0,2-2.08,1.828,1.828,0,0,0-.8-1.52,34.817,34.817,0,0,1-9.12-9.68l7.44.16ZM11.96,1.16S11.8-7.72,11.76-14A13.923,13.923,0,0,1,13-12.4a1.291,1.291,0,0,0,1.12.64,1.782,1.782,0,0,0,1.6-1.76c0-1.64-3.08-3.56-3.76-3.56h-.2v-3.56l2.4.04h.04a1.665,1.665,0,0,0,1.72-1.76,1.675,1.675,0,0,0-1.76-1.76H11.84c.04-3.64.12-6.84.12-6.84V-31A1.8,1.8,0,0,0,10-32.76,1.819,1.819,0,0,0,8.04-31v.04l.12,6.84H4.56a1.709,1.709,0,0,0-1.8,1.76A1.7,1.7,0,0,0,4.52-20.6h.04l3.64-.08.04.56A35.285,35.285,0,0,1,1.96-10.2,1.766,1.766,0,0,0,1.4-8.92,1.969,1.969,0,0,0,3.36-7.08c.64,0,1.64,0,4.84-5.88L8.04,1.16V1.2A1.761,1.761,0,0,0,10,2.88,1.782,1.782,0,0,0,11.96,1.2ZM71.84-26.12A1.9,1.9,0,0,0,73.68-28c0-1.96-4.68-4.2-5.44-4.2a1.656,1.656,0,0,0-1.68,1.64,1.639,1.639,0,0,0,.88,1.4,12.207,12.207,0,0,1,3.08,2.4A1.725,1.725,0,0,0,71.84-26.12Zm3.64,4.96A1.76,1.76,0,0,0,77.32-23a1.76,1.76,0,0,0-1.84-1.84H65.12c0-1.04-.04-2.08-.04-3.04,0-1,.04-2,.04-2.92v-.08A1.912,1.912,0,0,0,63-32.76a1.863,1.863,0,0,0-2.04,1.72c0,2.04.04,4.12.16,6.2H44.72A1.8,1.8,0,0,0,42.8-23a1.8,1.8,0,0,0,1.92,1.84H61.36c.72,7.76,2.56,15.24,6.6,20.52A5.909,5.909,0,0,0,72.4,1.88c4.36,0,5.88-6.8,5.88-7.6a2.056,2.056,0,0,0-2.16-1.96A1.8,1.8,0,0,0,74.24-6.2c-.6,2.68-1.2,3.68-1.88,3.68-1.16,0-6.08-5.44-7.08-18.64ZM51.16-5.12c-2,.48-4.08.88-6,1.2a1.929,1.929,0,0,0-1.84,1.88A1.967,1.967,0,0,0,45.4-.08c1.48,0,9.84-2.16,15.88-4.6a1.765,1.765,0,0,0,1.24-1.64,1.732,1.732,0,0,0-1.68-1.76,2.371,2.371,0,0,0-.68.16c-1.44.56-3.32,1.2-5.36,1.8l.04-7h3.84a1.76,1.76,0,0,0,1.84-1.84,1.75,1.75,0,0,0-1.84-1.8H46.92a1.774,1.774,0,0,0-1.84,1.8,1.783,1.783,0,0,0,1.84,1.84h4.2Zm64.04-11a2.416,2.416,0,0,0,2.36-2.36,1.878,1.878,0,0,0-1.08-1.72,47.19,47.19,0,0,1-12.96-10,5.155,5.155,0,0,0-3.76-1.92,4.464,4.464,0,0,0-3.48,1.92c-3.04,3.96-8,8.84-12.64,11.24a2.189,2.189,0,0,0-1.28,1.88,2.178,2.178,0,0,0,2.2,2.12,3,3,0,0,0,1.68-.56,61.724,61.724,0,0,0,12.84-12c.4-.48.68-.72.96-.72s.6.24,1.04.72C105.52-22.56,113.04-16.12,115.2-16.12Zm-9.24-1.52a1.763,1.763,0,0,0,1.88-1.8,1.785,1.785,0,0,0-1.88-1.8H94.48a1.785,1.785,0,0,0-1.88,1.8,1.763,1.763,0,0,0,1.88,1.8Zm6.68,7.44a1.768,1.768,0,0,0,1.92-1.76,1.8,1.8,0,0,0-1.92-1.84H87.24a1.825,1.825,0,0,0-1.88,1.88,1.7,1.7,0,0,0,1.88,1.72l7.56-.04A46.566,46.566,0,0,1,91.96-2.2c-1.44.08-2.88.12-4.28.16a1.678,1.678,0,0,0-1.64,1.8,1.892,1.892,0,0,0,1.84,2A163.8,163.8,0,0,0,109.4-.96a17.809,17.809,0,0,1,1.32,2.04,1.81,1.81,0,0,0,1.64,1.08A2.274,2.274,0,0,0,114.6,0c0-2.36-7.2-9.04-9.56-9.04a1.817,1.817,0,0,0-1.88,1.64A1.627,1.627,0,0,0,104-6.04a26.518,26.518,0,0,1,2.92,2.32c-3.48.52-7.12.96-10.8,1.24a65.774,65.774,0,0,0,2.92-7.8ZM156.08.88A1.775,1.775,0,0,0,158-.92a1.8,1.8,0,0,0-1.92-1.8l-7.76.04V-16.64l5.8.04a1.8,1.8,0,0,0,1.92-1.8,1.763,1.763,0,0,0-1.88-1.8h-.04l-5.8.08.04-10.04a1.846,1.846,0,0,0-2-1.84,1.858,1.858,0,0,0-2.04,1.84v10l-5.2-.04h-.04a1.719,1.719,0,0,0-1.8,1.8,1.75,1.75,0,0,0,1.84,1.8l5.2-.04.04,13.96-7.92-.04a1.729,1.729,0,0,0-1.84,1.8,1.75,1.75,0,0,0,1.84,1.8ZM138.28-9.56a2.137,2.137,0,0,0,1.96-2.12c0-1.96-4.28-4.16-5.04-4.16a1.949,1.949,0,0,0-1.88,1.8,1.154,1.154,0,0,0,.64,1,9.852,9.852,0,0,1,3.08,2.76A1.479,1.479,0,0,0,138.28-9.56ZM132.8.96s-.16-10.24-.2-16.44c1.92-2.28,4.96-6.56,4.96-8.64,0-1.52-1.12-2.64-3.44-2.68H132.8v-3.96a1.838,1.838,0,0,0-2-1.8,1.826,1.826,0,0,0-1.96,1.8l.04,4c-1.24.04-2.48.04-3.72.08a1.7,1.7,0,0,0-1.8,1.72,1.736,1.736,0,0,0,1.84,1.72h.04c2.48-.04,4.2-.2,6.48-.2h.72c.28,0,.88.04.88.44a22.807,22.807,0,0,1-10.04,10.56,1.92,1.92,0,0,0-1.16,1.64,1.964,1.964,0,0,0,2.04,1.84c1.16,0,3.52-1.68,4.92-2.88l-.2,12.8V1a1.793,1.793,0,0,0,2,1.64A1.717,1.717,0,0,0,132.8,1Zm30.88-28.52v.84c0,3.96-.16,12.72-.16,18.2,0,1.48,0,2.76.04,3.6.12,3.52,2.32,4.84,6,5.12.52.04,2.88.08,5.2.08,2.36,0,4.72-.04,5.24-.08a2.361,2.361,0,0,0,2.52-2.28,2.091,2.091,0,0,0-2.16-2.12h-.2c-.76.04-3.32.08-5.64.08-5.44,0-6.32,0-6.48-1.92-.04-.68-.08-2.48-.08-4.76,0-5.56.12-14,.24-16.56v-.16a2.269,2.269,0,0,0-2.28-2.44,2.216,2.216,0,0,0-2.24,2.36ZM195.44.6A9.7,9.7,0,0,0,205.48-9.52a9.82,9.82,0,0,0-10.04-10.12A9.852,9.852,0,0,0,185.36-9.52,9.737,9.737,0,0,0,195.44.6Zm0-3.76a5.971,5.971,0,0,1-6.04-6.36c0-3.96,2.76-6.44,6.04-6.44s6,2.48,6,6.44C201.44-5.6,198.76-3.16,195.44-3.16Zm22.8-2.8c4.92-.2,7.56-2.88,7.56-6.72a5.518,5.518,0,0,0-.36-2.36.7.7,0,0,1-.04-.24c0-.16.08-.16.16-.2a1.5,1.5,0,0,1,.84-.24,2.655,2.655,0,0,1,.52.04,1.641,1.641,0,0,0,.44.04,1.7,1.7,0,0,0,1.68-1.84c0-1.96-1.68-2.08-2.84-2.08a5.514,5.514,0,0,0-2.68.84,1.209,1.209,0,0,1-.64.2,1.383,1.383,0,0,1-.68-.2,10.556,10.556,0,0,0-4.44-.96h-.08c-3.92,0-7.92,2.36-7.92,7a6.569,6.569,0,0,0,2.4,4.96c.32.24.44.36.44.48s-.24.2-.52.36a3.894,3.894,0,0,0-2.28,3.56A3,3,0,0,0,212-.48c.28.08.36.16.36.24,0,.04-.08.12-.2.16-1.92.8-3.52,2.28-3.52,4.48,0,2.6,2.56,6.28,9.8,6.28,5.36,0,10.6-2.24,10.6-7.6,0-3.28-2.68-6.2-8.68-6.2-6.04,0-6.52-.16-6.52-.88C213.84-5.6,216.56-5.92,218.24-5.96Zm3.84-6.8c0,2.32-2,3.48-4.36,3.48-3.56,0-4.04-2.4-4.04-3.44,0-2.04,1.84-3.52,4.2-3.52C220.88-16.24,222.08-14.56,222.08-12.76Zm2.76,16.08c0,3.64-5.2,3.8-6.32,3.8-5.76,0-5.88-2.76-5.88-3.12,0-.48.56-3.72,5.84-3.72C221.52.28,224.84.28,224.84,3.32ZM241.56.6A9.7,9.7,0,0,0,251.6-9.52a9.82,9.82,0,0,0-10.04-10.12A9.852,9.852,0,0,0,231.48-9.52,9.737,9.737,0,0,0,241.56.6Zm0-3.76a5.971,5.971,0,0,1-6.04-6.36c0-3.96,2.76-6.44,6.04-6.44s6,2.48,6,6.44C247.56-5.6,244.88-3.16,241.56-3.16Z" transform="translate(-1.4 32.76)" fill="#d1581a"/></svg>